REM DIRINDEX 1\2,1\3,1\4,1\5
REM DIRNAME folder01,folder02,folder03,folder04,folder05
TITLE ""
FILE "CD1Track02.mp3" MP3
  TRACK 01 AUDIO
    TITLE "5:cjc155_0002"
    INDEX 01 00:00:00
  TRACK 02 AUDIO
    TITLE "0:"
    INDEX 01 00:01:28
  TRACK 03 AUDIO
    TITLE "2:cjc155_0003"
    INDEX 01 00:02:42
  TRACK 04 AUDIO
    TITLE "3:cjc155_0004"
    INDEX 01 00:04:35
  TRACK 05 AUDIO
    TITLE "2:cjc155_0005"
    INDEX 01 00:06:35
  TRACK 06 AUDIO
    TITLE "3:cjc155_0006"
    INDEX 01 00:08:50
  TRACK 07 AUDIO
    TITLE "2:cjc155_0007"
    INDEX 01 00:10:74
  TRACK 08 AUDIO
    TITLE "3:cjc155_0008"
    INDEX 01 00:12:54
  TRACK 09 AUDIO
    TITLE "2:cjc155_0009"
    INDEX 01 00:14:39
  TRACK 10 AUDIO
    TITLE "3:cjc155_0010"
    INDEX 01 00:15:64
  TRACK 11 AUDIO
    TITLE "2:cjc155_0011"
    INDEX 01 00:17:20
  TRACK 12 AUDIO
    TITLE "3:cjc155_0012"
    INDEX 01 00:19:15
  TRACK 13 AUDIO
    TITLE "2:cjc155_0013"
    INDEX 01 00:21:17
  TRACK 14 AUDIO
    TITLE "3:cjc155_0014"
    INDEX 01 00:22:70
  TRACK 15 AUDIO
    TITLE "2:cjc155_0015"
    INDEX 01 00:24:57
  TRACK 16 AUDIO
    TITLE "3:cjc155_0016"
    INDEX 01 00:26:17
  TRACK 17 AUDIO
    TITLE "2:cjc155_0017"
    INDEX 01 00:27:63
  TRACK 18 AUDIO
    TITLE "3:cjc155_0018"
    INDEX 01 00:29:33
  TRACK 19 AUDIO
    TITLE "2:cjc155_0019"
    INDEX 01 00:31:10
  TRACK 20 AUDIO
    TITLE "3:cjc155_0020"
    INDEX 01 00:32:33
  TRACK 21 AUDIO
    TITLE "2:cjc155_0021"
    INDEX 01 00:33:68
  TRACK 22 AUDIO
    TITLE "3:cjc155_0022"
    INDEX 01 00:35:10
  TRACK 23 AUDIO
    TITLE "2:cjc155_0023"
    INDEX 01 00:36:36
  TRACK 24 AUDIO
    TITLE "3:cjc155_0024"
    INDEX 01 00:38:10
  TRACK 25 AUDIO
    TITLE "2:cjc155_0025"
    INDEX 01 00:39:70
  TRACK 26 AUDIO
    TITLE "3:cjc155_0026"
    INDEX 01 00:41:38
  TRACK 27 AUDIO
    TITLE "2:cjc155_0027"
    INDEX 01 00:43:13
  TRACK 28 AUDIO
    TITLE "3:cjc155_0028"
    INDEX 01 00:44:40
  TRACK 29 AUDIO
    TITLE "2:cjc155_0029"
    INDEX 01 00:46:00
  TRACK 30 AUDIO
    TITLE "3:cjc155_0030"
    INDEX 01 00:47:11
  TRACK 31 AUDIO
    TITLE "2:cjc155_0031"
    INDEX 01 00:48:30
  TRACK 32 AUDIO
    TITLE "3:cjc155_0032"
    INDEX 01 00:50:07
  TRACK 33 AUDIO
    TITLE "2:cjc155_0033"
    INDEX 01 00:51:71
  TRACK 34 AUDIO
    TITLE "3:cjc155_0034"
    INDEX 01 00:54:11
  TRACK 35 AUDIO
    TITLE "2:cjc155_0035"
    INDEX 01 00:56:31
  TRACK 36 AUDIO
    TITLE "3:cjc155_0036"
    INDEX 01 00:59:00
  TRACK 37 AUDIO
    TITLE "2:cjc155_0037"
    INDEX 01 01:01:54
  TRACK 38 AUDIO
    TITLE "3:cjc155_0038"
    INDEX 01 01:03:02
  TRACK 39 AUDIO
    TITLE "2:cjc155_0039"
    INDEX 01 01:04:47
  TRACK 40 AUDIO
    TITLE "3:cjc155_0040"
    INDEX 01 01:06:16
  TRACK 41 AUDIO
    TITLE "2:cjc155_0041"
    INDEX 01 01:07:63
  TRACK 42 AUDIO
    TITLE "3:cjc155_0042"
    INDEX 01 01:10:49
  TRACK 43 AUDIO
    TITLE "2:cjc155_0043"
    INDEX 01 01:13:40
  TRACK 44 AUDIO
    TITLE "3:cjc155_0044"
    INDEX 01 01:15:35
  TRACK 45 AUDIO
    TITLE "2:cjc155_0045"
    INDEX 01 01:17:43
  TRACK 46 AUDIO
    TITLE "3:cjc155_0046"
    INDEX 01 01:18:70
  TRACK 47 AUDIO
    TITLE "2:cjc155_0047"
    INDEX 01 01:20:32
  TRACK 48 AUDIO
    TITLE "3:cjc155_0048"
    INDEX 01 01:22:25
  TRACK 49 AUDIO
    TITLE "2:cjc155_0049"
    INDEX 01 01:24:24
  TRACK 50 AUDIO
    TITLE "3:cjc155_0050"
    INDEX 01 01:26:25
  TRACK 51 AUDIO
    TITLE "2:cjc155_0051"
    INDEX 01 01:28:37
  TRACK 52 AUDIO
    TITLE "3:cjc155_0052"
    INDEX 01 01:30:42
  TRACK 53 AUDIO
    TITLE "2:cjc155_0053"
    INDEX 01 01:32:51
  TRACK 54 AUDIO
    TITLE "3:cjc155_0054"
    INDEX 01 01:34:22
  TRACK 55 AUDIO
    TITLE "2:cjc155_0055"
    INDEX 01 01:36:00
  TRACK 56 AUDIO
    TITLE "3:cjc155_0056"
    INDEX 01 01:37:71
  TRACK 57 AUDIO
    TITLE "2:cjc155_0057"
    INDEX 01 01:40:13
  TRACK 58 AUDIO
    TITLE "3:cjc155_0058"
    INDEX 01 01:42:47
  TRACK 59 AUDIO
    TITLE "2:cjc155_0059"
    INDEX 01 01:45:16
  TRACK 60 AUDIO
    TITLE "3:cjc155_0060"
    INDEX 01 01:46:74
  TRACK 61 AUDIO
    TITLE "2:cjc155_0061"
    INDEX 01 01:48:65
  TRACK 62 AUDIO
    TITLE "3:cjc155_0062"
    INDEX 01 01:50:41
  TRACK 63 AUDIO
    TITLE "2:cjc155_0063"
    INDEX 01 01:52:26
  TRACK 64 AUDIO
    TITLE "3:cjc155_0064"
    INDEX 01 01:54:48
  TRACK 65 AUDIO
    TITLE "2:cjc155_0065"
    INDEX 01 01:57:09
  TRACK 66 AUDIO
    TITLE "3:cjc155_0066"
    INDEX 01 01:59:20
  TRACK 67 AUDIO
    TITLE "2:cjc155_0067"
    INDEX 01 02:01:37
  TRACK 68 AUDIO
    TITLE "3:cjc155_0068"
    INDEX 01 02:03:39
  TRACK 69 AUDIO
    TITLE "2:cjc155_0069"
    INDEX 01 02:05:44
  TRACK 70 AUDIO
    TITLE "3:cjc155_0070"
    INDEX 01 02:07:14
  TRACK 71 AUDIO
    TITLE "2:cjc155_0071"
    INDEX 01 02:08:70
  TRACK 72 AUDIO
    TITLE "3:cjc155_0072"
    INDEX 01 02:10:18
  TRACK 73 AUDIO
    TITLE "2:cjc155_0073"
    INDEX 01 02:11:53
  TRACK 74 AUDIO
    TITLE "3:cjc155_0074"
    INDEX 01 02:13:26
  TRACK 75 AUDIO
    TITLE "2:cjc155_0075"
    INDEX 01 02:15:13
  TRACK 76 AUDIO
    TITLE "3:cjc155_0076"
    INDEX 01 02:16:72
  TRACK 77 AUDIO
    TITLE "2:cjc155_0077"
    INDEX 01 02:18:63
  TRACK 78 AUDIO
    TITLE "3:cjc155_0078"
    INDEX 01 02:20:24
  TRACK 79 AUDIO
    TITLE "2:cjc155_0079"
    INDEX 01 02:21:71
  TRACK 80 AUDIO
    TITLE "3:cjc155_0080"
    INDEX 01 02:23:15
  TRACK 81 AUDIO
    TITLE "2:cjc155_0081"
    INDEX 01 02:24:36
  TRACK 82 AUDIO
    TITLE "3:cjc155_0082"
    INDEX 01 02:25:55
  TRACK 83 AUDIO
    TITLE "2:cjc155_0083"
    INDEX 01 02:27:05
  TRACK 84 AUDIO
    TITLE "3:cjc155_0084"
    INDEX 01 02:28:73
  TRACK 85 AUDIO
    TITLE "2:cjc155_0085"
    INDEX 01 02:31:06
  TRACK 86 AUDIO
    TITLE "3:cjc155_0086"
    INDEX 01 02:32:22
  TRACK 87 AUDIO
    TITLE "2:cjc155_0087"
    INDEX 01 02:33:50
  TRACK 88 AUDIO
    TITLE "3:cjc155_0088"
    INDEX 01 02:35:41
  TRACK 89 AUDIO
    TITLE "2:cjc155_0089"
    INDEX 01 02:37:40
  TRACK 90 AUDIO
    TITLE "3:cjc155_0090"
    INDEX 01 02:39:26
  TRACK 91 AUDIO
    TITLE "2:cjc155_0091"
    INDEX 01 02:41:11
  TRACK 92 AUDIO
    TITLE "3:cjc155_0092"
    INDEX 01 02:42:73
  TRACK 93 AUDIO
    TITLE "2:cjc155_0093"
    INDEX 01 02:44:64
  TRACK 94 AUDIO
    TITLE "3:cjc155_0094"
    INDEX 01 02:46:41
  TRACK 95 AUDIO
    TITLE "2:cjc155_0095"
    INDEX 01 02:48:24
  TRACK 96 AUDIO
    TITLE "3:cjc155_0096"
    INDEX 01 02:49:69
  TRACK 97 AUDIO
    TITLE "2:cjc155_0097"
    INDEX 01 02:51:44
  TRACK 98 AUDIO
    TITLE "3:cjc155_0098"
    INDEX 01 02:53:33
  TRACK 99 AUDIO
    TITLE "2:cjc155_0099"
    INDEX 01 02:55:30
  TRACK 100 AUDIO
    TITLE "3:cjc155_0100"
    INDEX 01 02:57:39
  TRACK 101 AUDIO
    TITLE "2:cjc155_0101"
    INDEX 01 02:59:62
  TRACK 102 AUDIO
    TITLE "3:cjc155_0102"
    INDEX 01 03:01:25
  TRACK 103 AUDIO
    TITLE "2:cjc155_0103"
    INDEX 01 03:02:74
  TRACK 104 AUDIO
    TITLE "3:cjc155_0104"
    INDEX 01 03:05:03
  TRACK 105 AUDIO
    TITLE "2:cjc155_0105"
    INDEX 01 03:07:16
  TRACK 106 AUDIO
    TITLE "3:cjc155_0106"
    INDEX 01 03:08:64
  TRACK 107 AUDIO
    TITLE "2:cjc155_0107"
    INDEX 01 03:10:44
  TRACK 108 AUDIO
    TITLE "3:cjc155_0108"
    INDEX 01 03:11:65
  TRACK 109 AUDIO
    TITLE "2:cjc155_0109"
    INDEX 01 03:13:32
  TRACK 110 AUDIO
    TITLE "3:cjc155_0110"
    INDEX 01 03:15:64
  TRACK 111 AUDIO
    TITLE "2:cjc155_0111"
    INDEX 01 03:18:30
  TRACK 112 AUDIO
    TITLE "3:cjc155_0112"
    INDEX 01 03:20:23
  TRACK 113 AUDIO
    TITLE "2:cjc155_0113"
    INDEX 01 03:22:25
  TRACK 114 AUDIO
    TITLE "3:cjc155_0114"
    INDEX 01 03:24:18
  TRACK 115 AUDIO
    TITLE "2:cjc155_0115"
    INDEX 01 03:26:19
  TRACK 116 AUDIO
    TITLE "3:cjc155_0116"
    INDEX 01 03:28:00
  TRACK 117 AUDIO
    TITLE "2:cjc155_0117"
    INDEX 01 03:29:65
  TRACK 118 AUDIO
    TITLE "3:cjc155_0118"
    INDEX 01 03:31:62
  TRACK 119 AUDIO
    TITLE "2:cjc155_0119"
    INDEX 01 03:34:07
  TRACK 120 AUDIO
    TITLE "3:cjc155_0120"
    INDEX 01 03:35:28
  TRACK 121 AUDIO
    TITLE "2:cjc155_0121"
    INDEX 01 03:36:55
  TRACK 122 AUDIO
    TITLE "3:cjc155_0122"
    INDEX 01 03:38:56
  TRACK 123 AUDIO
    TITLE "2:cjc155_0123"
    INDEX 01 03:40:62
  TRACK 124 AUDIO
    TITLE "3:cjc155_0124"
    INDEX 01 03:42:65
  TRACK 125 AUDIO
    TITLE "2:cjc155_0125"
    INDEX 01 03:45:03
  TRACK 126 AUDIO
    TITLE "3:cjc155_0126"
    INDEX 01 03:46:51
  TRACK 127 AUDIO
    TITLE "2:cjc155_0127"
    INDEX 01 03:48:35
  TRACK 128 AUDIO
    TITLE "3:cjc155_0128"
    INDEX 01 03:49:67
  TRACK 129 AUDIO
    TITLE "2:cjc155_0129"
    INDEX 01 03:51:37
  TRACK 130 AUDIO
    TITLE "3:cjc155_0130"
    INDEX 01 03:55:27
  TRACK 131 AUDIO
    TITLE "2:cjc155_0131"
    INDEX 01 03:59:27
  TRACK 132 AUDIO
    TITLE "3:cjc155_0132"
    INDEX 01 04:01:02
  TRACK 133 AUDIO
    TITLE "2:cjc155_0133"
    INDEX 01 04:02:62
  TRACK 134 AUDIO
    TITLE "3:cjc155_0134"
    INDEX 01 04:04:18
  TRACK 135 AUDIO
    TITLE "2:cjc155_0135"
    INDEX 01 04:05:58
  TRACK 136 AUDIO
    TITLE "3:cjc155_0136"
    INDEX 01 04:07:36
  TRACK 137 AUDIO
    TITLE "2:cjc155_0137"
    INDEX 01 04:09:15
  TRACK 138 AUDIO
    TITLE "3:cjc155_0138"
    INDEX 01 04:10:73
  TRACK 139 AUDIO
    TITLE "2:cjc155_0139"
    INDEX 01 04:12:62
  TRACK 140 AUDIO
    TITLE "3:cjc155_0140"
    INDEX 01 04:15:00
  TRACK 141 AUDIO
    TITLE "2:cjc155_0141"
    INDEX 01 04:17:28
  TRACK 142 AUDIO
    TITLE "3:cjc155_0142"
    INDEX 01 04:19:31
  TRACK 143 AUDIO
    TITLE "2:cjc155_0143"
    INDEX 01 04:21:44
  TRACK 144 AUDIO
    TITLE "3:cjc155_0144"
    INDEX 01 04:22:63
  TRACK 145 AUDIO
    TITLE "2:cjc155_0145"
    INDEX 01 04:24:15
  TRACK 146 AUDIO
    TITLE "3:cjc155_0146"
    INDEX 01 04:26:51
  TRACK 147 AUDIO
    TITLE "2:cjc155_0147"
    INDEX 01 04:29:22
  TRACK 148 AUDIO
    TITLE "3:cjc155_0148"
    INDEX 01 04:30:23
  TRACK 149 AUDIO
    TITLE "2:cjc155_0149"
    INDEX 01 04:31:36
  TRACK 150 AUDIO
    TITLE "3:cjc155_0150"
    INDEX 01 04:32:49
  TRACK 151 AUDIO
    TITLE "2:cjc155_0151"
    INDEX 01 04:33:69
  TRACK 152 AUDIO
    TITLE "3:cjc155_0152"
    INDEX 01 04:35:34
  TRACK 153 AUDIO
    TITLE "2:cjc155_0153"
    INDEX 01 04:37:08
  TRACK 154 AUDIO
    TITLE "3:cjc155_0154"
    INDEX 01 04:39:38
  TRACK 155 AUDIO
    TITLE "2:cjc155_0155"
    INDEX 01 04:42:07
  TRACK 156 AUDIO
    TITLE "3:cjc155_0156"
    INDEX 01 04:43:08
  TRACK 157 AUDIO
    TITLE "2:cjc155_0157"
    INDEX 01 04:44:23
  TRACK 158 AUDIO
    TITLE "3:cjc155_0158"
    INDEX 01 04:45:38
  TRACK 159 AUDIO
    TITLE "2:cjc155_0159"
    INDEX 01 04:46:63
  TRACK 160 AUDIO
    TITLE "3:cjc155_0160"
    INDEX 01 04:49:19
  TRACK 161 AUDIO
    TITLE "2:cjc155_0161"
    INDEX 01 04:51:59
  TRACK 162 AUDIO
    TITLE "3:cjc155_0162"
    INDEX 01 04:52:74
  TRACK 163 AUDIO
    TITLE "2:cjc155_0163"
    INDEX 01 04:54:33
  TRACK 164 AUDIO
    TITLE "3:cjc155_0164"
    INDEX 01 04:56:21
  TRACK 165 AUDIO
    TITLE "2:cjc155_0165"
    INDEX 01 04:58:12
  TRACK 166 AUDIO
    TITLE "3:cjc155_0166"
    INDEX 01 05:00:60
  TRACK 167 AUDIO
    TITLE "2:cjc155_0167"
    INDEX 01 05:03:36
  TRACK 168 AUDIO
    TITLE "3:cjc155_0168"
    INDEX 01 05:06:35
  TRACK 169 AUDIO
    TITLE "2:cjc155_0169"
    INDEX 01 05:09:35
  TRACK 170 AUDIO
    TITLE "3:cjc155_0170"
    INDEX 01 05:12:14
  TRACK 171 AUDIO
    TITLE "2:cjc155_0171"
    INDEX 01 05:15:02
  TRACK 172 AUDIO
    TITLE "3:cjc155_0172"
    INDEX 01 05:16:25
  TRACK 173 AUDIO
    TITLE "2:cjc155_0173"
    INDEX 01 05:17:54
  TRACK 174 AUDIO
    TITLE "3:cjc155_0174"
    INDEX 01 05:19:49
  TRACK 175 AUDIO
    TITLE "2:cjc155_0175"
    INDEX 01 05:21:58
  TRACK 176 AUDIO
    TITLE "3:cjc155_0176"
    INDEX 01 05:24:05
  TRACK 177 AUDIO
    TITLE "2:cjc155_0177"
    INDEX 01 05:26:37
  TRACK 178 AUDIO
    TITLE "3:cjc155_0178"
    INDEX 01 05:29:10
  TRACK 179 AUDIO
    TITLE "2:cjc155_0179"
    INDEX 01 05:31:70
  TRACK 180 AUDIO
    TITLE "3:cjc155_0180"
    INDEX 01 05:34:13
  TRACK 181 AUDIO
    TITLE "2:cjc155_0181"
    INDEX 01 05:36:36
  TRACK 182 AUDIO
    TITLE "3:cjc155_0182"
    INDEX 01 05:38:60
  TRACK 183 AUDIO
    TITLE "2:cjc155_0183"
    INDEX 01 05:41:19
  TRACK 184 AUDIO
    TITLE "3:cjc155_0184"
    INDEX 01 05:43:73
  TRACK 185 AUDIO
    TITLE "2:cjc155_0185"
    INDEX 01 05:46:58
  TRACK 186 AUDIO
    TITLE "3:cjc155_0186"
    INDEX 01 05:48:64
  TRACK 187 AUDIO
    TITLE "2:cjc155_0187"
    INDEX 01 05:51:08
  TRACK 188 AUDIO
    TITLE "3:cjc155_0188"
    INDEX 01 05:52:43
  TRACK 189 AUDIO
    TITLE "2:cjc155_0189"
    INDEX 01 05:53:69
  TRACK 190 AUDIO
    TITLE "3:cjc155_0190"
    INDEX 01 05:55:63
  TRACK 191 AUDIO
    TITLE "2:cjc155_0191"
    INDEX 01 05:57:59
  TRACK 192 AUDIO
    TITLE "3:cjc155_0192"
    INDEX 01 05:59:56
  TRACK 193 AUDIO
    TITLE "2:cjc155_0193"
    INDEX 01 06:01:59
  TRACK 194 AUDIO
    TITLE "3:cjc155_0194"
    INDEX 01 06:03:50
  TRACK 195 AUDIO
    TITLE "2:cjc155_0195"
    INDEX 01 06:05:51
  TRACK 196 AUDIO
    TITLE "3:cjc155_0196"
    INDEX 01 06:06:70
  TRACK 197 AUDIO
    TITLE "2:cjc155_0197"
    INDEX 01 06:08:34
  TRACK 198 AUDIO
    TITLE "3:cjc155_0198"
    INDEX 01 06:09:53
  TRACK 199 AUDIO
    TITLE "2:cjc155_0199"
    INDEX 01 06:10:70
  TRACK 200 AUDIO
    TITLE "3:cjc155_0200"
    INDEX 01 06:13:08
  TRACK 201 AUDIO
    TITLE "2:cjc155_0201"
    INDEX 01 06:15:24
  TRACK 202 AUDIO
    TITLE "3:cjc155_0202"
    INDEX 01 06:17:68
  TRACK 203 AUDIO
    TITLE "2:cjc155_0203"
    INDEX 01 06:20:41
  TRACK 204 AUDIO
    TITLE "3:cjc155_0204"
    INDEX 01 06:22:67
  TRACK 205 AUDIO
    TITLE "0:"
    INDEX 01 06:25:21
